<?xml version="1.0" encoding="UTF-8"?>
<svg id="Layer_1" data-name="Layer 1" xmlns="http://www.w3.org/2000/svg" version="1.1" viewBox="0 0 100 100">
  <defs>
    <style>
      .cls-1 {
        fill: none;
        stroke: #231f20;
        stroke-miterlimit: 10;
      }

      .cls-2 {
        fill: #231f20;
        stroke-width: 0px;
      }
    </style>
  </defs>
  <g>
    <rect class="cls-1" x="7.8" y="12.1" width="23" height="23"/>
    <rect class="cls-1" x="69.2" y="12.1" width="23" height="23"/>
    <rect class="cls-1" x="69.2" y="64.9" width="23" height="23"/>
  </g>
  <rect class="cls-2" x="33.5" y="11.4" width="1.8" height="10"/>
  <rect class="cls-2" x="46.9" y="15" width="1.4" height="10"/>
  <rect class="cls-2" x="42.6" y="7.1" width="1.4" height="10" transform="translate(55.4 -31.3) rotate(90)"/>
  <rect class="cls-2" x="38.2" y="22.7" width="1.4" height="10.9" transform="translate(67.1 -10.8) rotate(90)"/>
  <rect class="cls-2" x="80" y="38.2" width="1.4" height="15.1" transform="translate(126.4 -35) rotate(90)"/>
  <rect class="cls-2" x="80" y="35.5" width="1.4" height="10.9" transform="translate(121.6 -39.8) rotate(90)"/>
  <rect class="cls-2" x="64.2" y="11.4" width="1.4" height="10.6" transform="translate(129.7 33.3) rotate(180)"/>
  <rect class="cls-2" x="64.2" y="28.9" width="1.4" height="10.6" transform="translate(129.7 68.3) rotate(180)"/>
  <rect class="cls-2" x="64.2" y="28.9" width="1.4" height="10.6" transform="translate(129.7 68.3) rotate(180)"/>
  <rect class="cls-2" x="84.8" y="48.4" width="1.4" height="10.6" transform="translate(170.9 107.4) rotate(180)"/>
  <rect class="cls-2" x="76.3" y="48.4" width="1.4" height="10.6" transform="translate(154 107.4) rotate(180)"/>
  <rect class="cls-2" x="7.1" y="37.8" width="1.4" height="10.6" transform="translate(15.5 86.3) rotate(180)"/>
  <rect class="cls-2" x="7.1" y="71.1" width="1.4" height="10.6" transform="translate(15.5 152.8) rotate(180)"/>
  <rect class="cls-2" x="30.1" y="64.9" width="1.4" height="10.6" transform="translate(61.6 140.4) rotate(180)"/>
  <rect class="cls-2" x="91.5" y="40.2" width="1.4" height="17.9" transform="translate(184.5 98.3) rotate(180)"/>
  <rect class="cls-2" x="26.6" y="81.9" width="1.4" height="6.8" transform="translate(54.7 170.6) rotate(180)"/>
  <rect class="cls-2" x="30.1" y="41.7" width="1.4" height="10.6" transform="translate(61.6 94) rotate(180)"/>
  <rect class="cls-2" x="21.7" y="51.7" width="1.4" height="10.6" transform="translate(44.9 114) rotate(180)"/>
  <rect class="cls-2" x="15.7" y="42.4" width="1.4" height="10.6" transform="translate(-31.2 64.1) rotate(-90)"/>
  <rect class="cls-2" x="15.7" y="61" width="1.4" height="10.6" transform="translate(-49.8 82.7) rotate(-90)"/>
  <rect class="cls-2" x="15.7" y="80.3" width="1.4" height="10.6" transform="translate(-69.2 102.1) rotate(-90)"/>
  <rect class="cls-2" x="50" y="26.4" width="1.4" height="10.6" transform="translate(101.4 63.4) rotate(180)"/>
  <rect class="cls-2" x="55.5" y="9" width="1.5" height="6.2" transform="translate(68.3 -44.2) rotate(90)"/>
  <rect class="cls-2" x="42.6" y="80.8" width="1.5" height="6.2" transform="translate(127.2 40.6) rotate(90)"/>
  <rect class="cls-2" x="59.1" y="81.1" width="1.5" height="6.2" transform="translate(144 24.3) rotate(90)"/>
  <rect class="cls-2" x="61.4" y="77.9" width="1.5" height="3.9" transform="translate(124.2 159.7) rotate(180)"/>
  <rect class="cls-2" x="58.6" y="18.1" width="1.5" height="12.4" transform="translate(83.7 -35) rotate(90)"/>
  <rect class="cls-2" x="45.7" y="26.5" width="1.5" height="25.9" transform="translate(85.9 -7) rotate(90)"/>
  <rect class="cls-2" x="45.7" y="66.9" width="1.5" height="25.9" transform="translate(126.3 33.4) rotate(90)"/>
  <rect class="cls-2" x="49.3" y="75" width="1.5" height="25.9" transform="translate(137.9 37.9) rotate(90)"/>
  <g>
    <rect class="cls-2" x="35.5" y="47" width="3.5" height="10" rx="1" ry="1"/>
    <rect class="cls-2" x="61" y="47.7" width="3.5" height="10" rx="1" ry="1"/>
  </g>
  <polygon class="cls-2" points="42.9 64.9 41.2 61.4 58.8 61.4 57.1 64.9 42.9 64.9"/>
  <g>
    <rect class="cls-2" x="12.7" y="19.4" width="1.6" height="4.5" rx=".4" ry=".4"/>
    <rect class="cls-2" x="24.2" y="19.7" width="1.6" height="4.5" rx=".4" ry=".4"/>
  </g>
  <polygon class="cls-2" points="16 27.5 15.2 25.9 23.2 25.9 22.4 27.5 16 27.5"/>
  <g>
    <rect class="cls-2" x="74.2" y="72.4" width="1.6" height="4.5" rx=".4" ry=".4"/>
    <rect class="cls-2" x="85.7" y="72.7" width="1.6" height="4.5" rx=".4" ry=".4"/>
  </g>
  <polygon class="cls-2" points="77.5 80.4 76.7 78.9 84.7 78.9 83.9 80.4 77.5 80.4"/>
  <rect class="cls-2" x="75.3" y="18.5" width="10.8" height="10.1"/>
</svg>