<svg width="39" height="35" viewBox="0 0 39 35" fill="none" xmlns="http://www.w3.org/2000/svg">
<path d="M28.2928 0.324074V10.7593H38.7404V0.324074H28.2928ZM38.2862 10.3056H28.6822V0.712963H38.2862V10.3056Z" />
<path d="M28.2928 24.5648V35H38.7404V24.5648H28.2928ZM38.2862 34.6111H28.6822V25.0185H38.2862V34.6111Z" />
<path d="M0 0.324074V10.7593H10.4476V0.324074H0ZM10.0582 10.3056H0.454243V0.712963H10.0582V10.3056Z" />
<path d="M12.8486 0H12.0699V4.53704H12.8486V0Z" />
<path d="M18.8186 1.62037H18.1697V6.15741H18.8186V1.62037Z" />
<path d="M18.8186 0.648149V1.23624e-06H14.2762V0.648149H18.8186Z" />
<path d="M17.0017 7.90741V7.25926H12.0699V7.90741H17.0017Z" />
<path d="M36.9235 15.8796V15.2315H30.1098V15.8796H36.9235Z" />
<path d="M36.015 13.6759V13.0278H31.0832V13.6759H36.015Z" />
<path d="M25.9567 4.7963H26.6057V0H25.9567V4.7963Z" />
<path d="M25.9567 12.7037H26.6057V7.90741H25.9567V12.7037Z" />
<path d="M25.9567 12.7037H26.6057V7.90741H25.9567V12.7037Z" />
<path d="M35.3661 21.5185H36.015V16.7222H35.3661V21.5185Z" />
<path d="M31.4725 21.5185H32.1215V16.7222H31.4725V21.5185Z" />
<path d="M0.0648921 16.787H0.713811V11.9907H0.0648921V16.787Z" />
<path d="M0.0648921 31.8889H0.713811V27.0926H0.0648921V31.8889Z" />
<path d="M10.5125 29.037H11.1614V24.2407H10.5125V29.037Z" />
<path d="M38.3511 21.1944H39V13.0926H38.3511V21.1944Z" />
<path d="M8.95508 35H9.60399V31.9537H8.95508V35Z" />
<path d="M10.5125 18.4722H11.1614V13.6759H10.5125V18.4722Z" />
<path d="M6.74875 23.0093H7.39767V18.213H6.74875V23.0093Z" />
<path d="M1.94676 16.1389V16.787H6.74875V16.1389H1.94676Z" />
<path d="M2.01165 24.5648V25.213H6.81364V24.5648H2.01165Z" />
<path d="M1.94675 33.3148V33.963H6.74875V33.3148H1.94675Z" />
<path d="M19.5324 11.6019H20.1814V6.80556H19.5324V11.6019Z" />
<path d="M23.8153 0.648149V1.23624e-06H21.025V0.648149H23.8153Z" />
<path d="M17.975 33.1852V32.537H15.1847V33.1852H17.975Z" />
<path d="M25.4376 33.25V32.6019H22.6473V33.25H25.4376Z" />
<path d="M24.7238 31.8889H25.3727V30.1389H24.7238V31.8889Z" />
<path d="M26.6705 6.15741V5.50926H21.025V6.15741H26.6705Z" />
<path d="M23.8153 13.0278V12.3796H12.0699V13.0278H23.8153Z" />
<path d="M23.8153 31.3056V30.6574H12.0699V31.3056H23.8153Z" />
<path d="M25.4376 34.9352V34.287H13.6922V34.9352H25.4376Z" />
<path d="M13.8869 16.1389H13.6273C13.2689 16.1389 12.9784 16.4291 12.9784 16.787V20.0278C12.9784 20.3857 13.2689 20.6759 13.6273 20.6759H13.8869C14.2452 20.6759 14.5358 20.3857 14.5358 20.0278V16.787C14.5358 16.4291 14.2452 16.1389 13.8869 16.1389Z" fill="white"/>
<path d="M25.4376 16.463H25.178C24.8197 16.463 24.5291 16.7531 24.5291 17.1111V20.3519C24.5291 20.7098 24.8197 21 25.178 21H25.4376C25.796 21 26.0865 20.7098 26.0865 20.3519V17.1111C26.0865 16.7531 25.796 16.463 25.4376 16.463Z" fill="white"/>
<path d="M16.3527 24.2407L15.574 22.6204H23.5557L22.777 24.2407H16.3527Z" fill="white"/>
<path d="M3.11481 3.62963H2.92013C2.77678 3.62963 2.66057 3.7457 2.66057 3.88889V5.44444C2.66057 5.58763 2.77678 5.7037 2.92013 5.7037H3.11481C3.25816 5.7037 3.37438 5.58763 3.37438 5.44444V3.88889C3.37438 3.7457 3.25816 3.62963 3.11481 3.62963Z" fill="white"/>
<path d="M8.30616 3.75926H8.11148C7.96813 3.75926 7.85191 3.87533 7.85191 4.01852V5.57407C7.85191 5.71726 7.96813 5.83333 8.11148 5.83333H8.30616C8.44951 5.83333 8.56572 5.71726 8.56572 5.57407V4.01852C8.56572 3.87533 8.44951 3.75926 8.30616 3.75926Z" fill="white"/>
<path d="M4.15308 7.32407L3.82862 6.61111H7.39767L7.07321 7.32407H4.15308Z" fill="white"/>
<path d="M31.0183 27.6111H30.8236C30.6803 27.6111 30.5641 27.7272 30.5641 27.8704V29.4259C30.5641 29.5691 30.6803 29.6852 30.8236 29.6852H31.0183C31.1617 29.6852 31.2779 29.5691 31.2779 29.4259V27.8704C31.2779 27.7272 31.1617 27.6111 31.0183 27.6111Z" fill="white"/>
<path d="M36.2096 27.7407H36.015C35.8716 27.7407 35.7554 27.8568 35.7554 28V29.5556C35.7554 29.6987 35.8716 29.8148 36.015 29.8148H36.2096C36.353 29.8148 36.4692 29.6987 36.4692 29.5556V28C36.4692 27.8568 36.353 27.7407 36.2096 27.7407Z" fill="white"/>
<path d="M32.0566 31.3056L31.6672 30.5926H35.3012L34.9118 31.3056H32.0566Z" fill="white"/>
<path d="M35.9501 3.0463H31.0183V7.97222H35.9501V3.0463Z" fill="white"/>
</svg>
